<svg id="my-svg" width="100%" xmlns="http://www.w3.org/2000/svg" xmlns:xlink="http://www.w3.org/1999/xlink" class="classDiagram" style="max-width: 539.59px; background-color: white;" viewBox="0 0 539.58984375 1006" role="graphics-document document" aria-roledescription="class"><style>#my-svg{font-family:"trebuchet ms",verdana,arial,sans-serif;font-size:16px;fill:#333;}@keyframes edge-animation-frame{from{stroke-dashoffset:0;}}@keyframes dash{to{stroke-dashoffset:0;}}#my-svg .edge-animation-slow{stroke-dasharray:9,5!important;stroke-dashoffset:900;animation:dash 50s linear infinite;stroke-linecap:round;}#my-svg .edge-animation-fast{stroke-dasharray:9,5!important;stroke-dashoffset:900;animation:dash 20s linear infinite;stroke-linecap:round;}#my-svg .error-icon{fill:#552222;}#my-svg .error-text{fill:#552222;stroke:#552222;}#my-svg .edge-thickness-normal{stroke-width:1px;}#my-svg .edge-thickness-thick{stroke-width:3.5px;}#my-svg .edge-pattern-solid{stroke-dasharray:0;}#my-svg .edge-thickness-invisible{stroke-width:0;fill:none;}#my-svg .edge-pattern-dashed{stroke-dasharray:3;}#my-svg .edge-pattern-dotted{stroke-dasharray:2;}#my-svg .marker{fill:#333333;stroke:#333333;}#my-svg .marker.cross{stroke:#333333;}#my-svg svg{font-family:"trebuchet ms",verdana,arial,sans-serif;font-size:16px;}#my-svg p{margin:0;}#my-svg g.classGroup text{fill:#9370DB;stroke:none;font-family:"trebuchet ms",verdana,arial,sans-serif;font-size:10px;}#my-svg g.classGroup text .title{font-weight:bolder;}#my-svg .cluster-label text{fill:#333;}#my-svg .cluster-label span{color:#333;}#my-svg .cluster-label span p{background-color:transparent;}#my-svg .cluster rect{fill:#ffffde;stroke:#aaaa33;stroke-width:1px;}#my-svg .cluster text{fill:#333;}#my-svg .cluster span{color:#333;}#my-svg .nodeLabel,#my-svg .edgeLabel{color:#131300;}#my-svg .noteLabel .nodeLabel,#my-svg .noteLabel .edgeLabel{color:black;}#my-svg .edgeLabel .label rect{fill:#ECECFF;}#my-svg .label text{fill:#131300;}#my-svg .labelBkg{background:#ECECFF;}#my-svg .edgeLabel .label span{background:#ECECFF;}#my-svg .classTitle{font-weight:bolder;}#my-svg .node rect,#my-svg .node circle,#my-svg .node ellipse,#my-svg .node polygon,#my-svg .node path{fill:#ECECFF;stroke:#9370DB;stroke-width:1;}#my-svg .divider{stroke:#9370DB;stroke-width:1;}#my-svg g.clickable{cursor:pointer;}#my-svg g.classGroup rect{fill:#ECECFF;stroke:#9370DB;}#my-svg g.classGroup line{stroke:#9370DB;stroke-width:1;}#my-svg .classLabel .box{stroke:none;stroke-width:0;fill:#ECECFF;opacity:0.5;}#my-svg .classLabel .label{fill:#9370DB;font-size:10px;}#my-svg .relation{stroke:#333333;stroke-width:1;fill:none;}#my-svg .dashed-line{stroke-dasharray:3;}#my-svg .dotted-line{stroke-dasharray:1 2;}#my-svg [id$="-compositionStart"],#my-svg .composition{fill:#333333!important;stroke:#333333!important;stroke-width:1;}#my-svg [id$="-compositionEnd"],#my-svg .composition{fill:#333333!important;stroke:#333333!important;stroke-width:1;}#my-svg [id$="-dependencyStart"],#my-svg .dependency{fill:#333333!important;stroke:#333333!important;stroke-width:1;}#my-svg [id$="-dependencyEnd"],#my-svg .dependency{fill:#333333!important;stroke:#333333!important;stroke-width:1;}#my-svg [id$="-extensionStart"],#my-svg .extension{fill:transparent!important;stroke:#333333!important;stroke-width:1;}#my-svg [id$="-extensionEnd"],#my-svg .extension{fill:transparent!important;stroke:#333333!important;stroke-width:1;}#my-svg [id$="-aggregationStart"],#my-svg .aggregation{fill:transparent!important;stroke:#333333!important;stroke-width:1;}#my-svg [id$="-aggregationEnd"],#my-svg .aggregation{fill:transparent!important;stroke:#333333!important;stroke-width:1;}#my-svg [id$="-lollipopStart"],#my-svg .lollipop{fill:#ECECFF!important;stroke:#333333!important;stroke-width:1;}#my-svg [id$="-lollipopEnd"],#my-svg .lollipop{fill:#ECECFF!important;stroke:#333333!important;stroke-width:1;}#my-svg .edgeTerminals{font-size:11px;line-height:initial;}#my-svg .classTitleText{text-anchor:middle;font-size:18px;fill:#333;}#my-svg .edgeLabel[data-look="neo"]{background-color:rgba(232,232,232, 0.8);text-align:center;}#my-svg .edgeLabel[data-look="neo"] p{background-color:rgba(232,232,232, 0.8);}#my-svg .edgeLabel[data-look="neo"] rect{opacity:0.5;background-color:rgba(232,232,232, 0.8);fill:rgba(232,232,232, 0.8);}#my-svg .label-icon{display:inline-block;height:1em;overflow:visible;vertical-align:-0.125em;}#my-svg .node .label-icon path{fill:currentColor;stroke:revert;stroke-width:revert;}#my-svg .node .neo-node{stroke:#9370DB;}#my-svg [data-look="neo"].node rect,#my-svg [data-look="neo"].cluster rect,#my-svg [data-look="neo"].node polygon{stroke:#9370DB;filter:drop-shadow(1px 2px 2px rgba(185, 185, 185, 1));}#my-svg [data-look="neo"].node path{stroke:#9370DB;stroke-width:1px;}#my-svg [data-look="neo"].node .outer-path{filter:drop-shadow(1px 2px 2px rgba(185, 185, 185, 1));}#my-svg [data-look="neo"].node .neo-line path{stroke:#9370DB;filter:none;}#my-svg [data-look="neo"].node circle{stroke:#9370DB;filter:drop-shadow(1px 2px 2px rgba(185, 185, 185, 1));}#my-svg [data-look="neo"].node circle .state-start{fill:#000000;}#my-svg [data-look="neo"].icon-shape .icon{fill:#9370DB;filter:drop-shadow(1px 2px 2px rgba(185, 185, 185, 1));}#my-svg [data-look="neo"].icon-shape .icon-neo path{stroke:#9370DB;filter:drop-shadow(1px 2px 2px rgba(185, 185, 185, 1));}#my-svg :root{--mermaid-font-family:"trebuchet ms",verdana,arial,sans-serif;}</style><g><defs><marker id="my-svg_class-aggregationStart" class="marker aggregation class" refX="18" refY="7" markerWidth="190" markerHeight="240" orient="auto"><path d="M 18,7 L9,13 L1,7 L9,1 Z"/></marker></defs><defs><marker id="my-svg_class-aggregationEnd" class="marker aggregation class" refX="1" refY="7" markerWidth="20" markerHeight="28" orient="auto"><path d="M 18,7 L9,13 L1,7 L9,1 Z"/></marker></defs><defs><marker id="my-svg_class-aggregationStart-margin" class="marker aggregation class" refX="15" refY="7" markerWidth="190" markerHeight="240" orient="auto" markerUnits="userSpaceOnUse"><path d="M 18,7 L9,13 L1,7 L9,1 Z" style="stroke-width: 2;"/></marker></defs><defs><marker id="my-svg_class-aggregationEnd-margin" class="marker aggregation class" refX="1" refY="7" markerWidth="20" markerHeight="28" orient="auto" markerUnits="userSpaceOnUse"><path d="M 18,7 L9,13 L1,7 L9,1 Z" style="stroke-width: 2;"/></marker></defs><defs><marker id="my-svg_class-extensionStart" class="marker extension class" refX="18" refY="7" markerWidth="190" markerHeight="240" orient="auto" markerUnits="userSpaceOnUse"><path d="M 1,7 L18,13 V 1 Z"/></marker></defs><defs><marker id="my-svg_class-extensionEnd" class="marker extension class" refX="1" refY="7" markerWidth="20" markerHeight="28" orient="auto"><path d="M 1,1 V 13 L18,7 Z"/></marker></defs><marker id="my-svg_class-extensionStart-margin" class="marker extension class" refX="18" refY="7" markerWidth="20" markerHeight="28" orient="auto" markerUnits="userSpaceOnUse" viewBox="0 0 20 14"><polygon points="10,7 18,13 18,1" style="stroke-width: 2; stroke-dasharray: 0;"/></marker><defs><marker id="my-svg_class-extensionEnd-margin" class="marker extension class" refX="9" refY="7" markerWidth="20" markerHeight="28" orient="auto" markerUnits="userSpaceOnUse" viewBox="0 0 20 14"><polygon points="10,1 10,13 18,7" style="stroke-width: 2; stroke-dasharray: 0;"/></marker></defs><defs><marker id="my-svg_class-compositionStart" class="marker composition class" refX="18" refY="7" markerWidth="190" markerHeight="240" orient="auto"><path d="M 18,7 L9,13 L1,7 L9,1 Z"/></marker></defs><defs><marker id="my-svg_class-compositionEnd" class="marker composition class" refX="1" refY="7" markerWidth="20" markerHeight="28" orient="auto"><path d="M 18,7 L9,13 L1,7 L9,1 Z"/></marker></defs><defs><marker id="my-svg_class-compositionStart-margin" class="marker composition class" refX="15" refY="7" markerWidth="190" markerHeight="240" orient="auto" markerUnits="userSpaceOnUse"><path viewBox="0 0 15 15" d="M 18,7 L9,13 L1,7 L9,1 Z" style="stroke-width: 0;"/></marker></defs><defs><marker id="my-svg_class-compositionEnd-margin" class="marker composition class" refX="3.5" refY="7" markerWidth="20" markerHeight="28" orient="auto" markerUnits="userSpaceOnUse"><path d="M 18,7 L9,13 L1,7 L9,1 Z" style="stroke-width: 0;"/></marker></defs><defs><marker id="my-svg_class-dependencyStart" class="marker dependency class" refX="6" refY="7" markerWidth="190" markerHeight="240" orient="auto"><path d="M 5,7 L9,13 L1,7 L9,1 Z"/></marker></defs><defs><marker id="my-svg_class-dependencyEnd" class="marker dependency class" refX="13" refY="7" markerWidth="20" markerHeight="28" orient="auto"><path d="M 18,7 L9,13 L14,7 L9,1 Z"/></marker></defs><defs><marker id="my-svg_class-dependencyStart-margin" class="marker dependency class" refX="4" refY="7" markerWidth="190" markerHeight="240" orient="auto" markerUnits="userSpaceOnUse"><path d="M 5,7 L9,13 L1,7 L9,1 Z" style="stroke-width: 0;"/></marker></defs><defs><marker id="my-svg_class-dependencyEnd-margin" class="marker dependency class" refX="16" refY="7" markerWidth="20" markerHeight="28" orient="auto" markerUnits="userSpaceOnUse"><path d="M 18,7 L9,13 L14,7 L9,1 Z" style="stroke-width: 0;"/></marker></defs><defs><marker id="my-svg_class-lollipopStart" class="marker lollipop class" refX="13" refY="7" markerWidth="190" markerHeight="240" orient="auto"><circle fill="transparent" cx="7" cy="7" r="6"/></marker></defs><defs><marker id="my-svg_class-lollipopEnd" class="marker lollipop class" refX="1" refY="7" markerWidth="190" markerHeight="240" orient="auto"><circle fill="transparent" cx="7" cy="7" r="6"/></marker></defs><defs><marker id="my-svg_class-lollipopStart-margin" class="marker lollipop class" refX="13" refY="7" markerWidth="190" markerHeight="240" orient="auto" markerUnits="userSpaceOnUse"><circle fill="transparent" cx="7" cy="7" r="6" stroke-width="2"/></marker></defs><defs><marker id="my-svg_class-lollipopEnd-margin" class="marker lollipop class" refX="1" refY="7" markerWidth="190" markerHeight="240" orient="auto" markerUnits="userSpaceOnUse"><circle fill="transparent" cx="7" cy="7" r="6" stroke-width="2"/></marker></defs><g class="root"><g class="clusters"/><g class="edgePaths"><path d="M412.668,176L412.668,182.167C412.668,188.333,412.668,200.667,412.668,210.125C412.668,219.583,412.668,226.167,412.668,229.458L412.668,232.75" id="my-svg-id_Bibliotecario_Usuario_1" class="edge-thickness-normal edge-pattern-solid relation" style=";;;" data-edge="true" data-et="edge" data-id="id_Bibliotecario_Usuario_1" data-points="W3sieCI6NDEyLjY2Nzk2ODc1LCJ5IjoxNzZ9LHsieCI6NDEyLjY2Nzk2ODc1LCJ5IjoyMTN9LHsieCI6NDEyLjY2Nzk2ODc1LCJ5IjoyNTB9XQ==" data-look="classic" marker-end="url(#my-svg_class-extensionEnd)"/><path d="M387.675,442L386.07,448.167C384.465,454.333,381.254,466.667,380.793,478.023C380.332,489.38,382.622,499.761,383.766,504.951L384.911,510.141" id="my-svg-id_Usuario_Emprestimo_2" class="edge-thickness-normal edge-pattern-solid relation" style=";;;" data-edge="true" data-et="edge" data-id="id_Usuario_Emprestimo_2" data-points="W3sieCI6Mzg3LjY3NTQ4NzU0Njk5MjUsInkiOjQ0Mn0seyJ4IjozNzguMDQyOTY4NzUsInkiOjQ3OX0seyJ4IjozODYuMjAzMDAwNTk3MTMzOCwieSI6NTE2fV0=" data-look="classic" marker-end="url(#my-svg_class-dependencyEnd)"/><path d="M127.324,732L127.324,742.167C127.324,752.333,127.324,772.667,133.833,788.353C140.341,804.04,153.358,815.079,159.867,820.599L166.375,826.119" id="my-svg-id_Livro_Exemplar_3" class="edge-thickness-normal edge-pattern-solid relation" style=";;;" data-edge="true" data-et="edge" data-id="id_Livro_Exemplar_3" data-points="W3sieCI6MTI3LjMyNDIxODc1LCJ5Ijo3MzJ9LHsieCI6MTI3LjMyNDIxODc1LCJ5Ijo3OTN9LHsieCI6MTcwLjk1MTE1NTczMzQ3MTA3LCJ5Ijo4MzB9XQ==" data-look="classic" marker-end="url(#my-svg_class-dependencyEnd)"/><path d="M412.668,756L412.668,762.167C412.668,768.333,412.668,780.667,406.159,792.353C399.651,804.04,386.634,815.079,380.125,820.599L373.617,826.119" id="my-svg-id_Emprestimo_Exemplar_4" class="edge-thickness-normal edge-pattern-solid relation" style=";;;" data-edge="true" data-et="edge" data-id="id_Emprestimo_Exemplar_4" data-points="W3sieCI6NDEyLjY2Nzk2ODc1LCJ5Ijo3NTZ9LHsieCI6NDEyLjY2Nzk2ODc1LCJ5Ijo3OTN9LHsieCI6MzY5LjA0MTAzMTc2NjUyODkzLCJ5Ijo4MzB9XQ==" data-look="classic" marker-end="url(#my-svg_class-dependencyEnd)"/><path d="M439.133,516L440.493,509.833C441.853,503.667,444.573,491.333,444.579,479.968C444.586,468.602,441.879,458.204,440.526,453.005L439.172,447.806" id="my-svg-id_Emprestimo_Usuario_5" class="edge-thickness-normal edge-pattern-solid relation" style=";;;" data-edge="true" data-et="edge" data-id="id_Emprestimo_Usuario_5" data-points="W3sieCI6NDM5LjEzMjkzNjkwMjg2NjIsInkiOjUxNn0seyJ4Ijo0NDcuMjkyOTY4NzUsInkiOjQ3OX0seyJ4Ijo0MzcuNjYwNDQ5OTUzMDA3NSwieSI6NDQyfV0=" data-look="classic" marker-end="url(#my-svg_class-dependencyEnd)"/></g><g class="edgeLabels"><g class="edgeLabel" transform="translate(412.66796875, 213)"><g class="label" data-id="id_Bibliotecario_Usuario_1" transform="translate(-28.5859375, -12)"><foreignObject width="57.171875" height="24"><div xmlns="http://www.w3.org/1999/xhtml" class="labelBkg" style="display: table-cell; white-space: nowrap; line-height: 1.5; max-width: 200px; text-align: center;"><span class="edgeLabel"><p>heranca</p></span></div></foreignObject></g></g><g class="edgeLabel" transform="translate(378.08632, 478.83346)"><g class="label" data-id="id_Usuario_Emprestimo_2" transform="translate(-24.3203125, -12)"><foreignObject width="48.640625" height="24"><div xmlns="http://www.w3.org/1999/xhtml" class="labelBkg" style="display: table-cell; white-space: nowrap; line-height: 1.5; max-width: 200px; text-align: center;"><span class="edgeLabel"><p>realiza</p></span></div></foreignObject></g></g><g class="edgeLabel" transform="translate(127.32421875, 793)"><g class="label" data-id="id_Livro_Exemplar_3" transform="translate(-21.8828125, -12)"><foreignObject width="43.765625" height="24"><div xmlns="http://www.w3.org/1999/xhtml" class="labelBkg" style="display: table-cell; white-space: nowrap; line-height: 1.5; max-width: 200px; text-align: center;"><span class="edgeLabel"><p>possui</p></span></div></foreignObject></g></g><g class="edgeLabel" transform="translate(412.66796875, 793)"><g class="label" data-id="id_Emprestimo_Exemplar_4" transform="translate(-37.0859375, -12)"><foreignObject width="74.171875" height="24"><div xmlns="http://www.w3.org/1999/xhtml" class="labelBkg" style="display: table-cell; white-space: nowrap; line-height: 1.5; max-width: 200px; text-align: center;"><span class="edgeLabel"><p>referencia</p></span></div></foreignObject></g></g><g class="edgeLabel" transform="translate(447.24961, 478.83346)"><g class="label" data-id="id_Emprestimo_Usuario_5" transform="translate(-24.9296875, -12)"><foreignObject width="49.859375" height="24"><div xmlns="http://www.w3.org/1999/xhtml" class="labelBkg" style="display: table-cell; white-space: nowrap; line-height: 1.5; max-width: 200px; text-align: center;"><span class="edgeLabel"><p>atende</p></span></div></foreignObject></g></g><g class="edgeTerminals" transform="translate(368.75038775821787, 455.1563929593682)"><g class="inner" transform="translate(-2.890625, -8.25)"><foreignObject width="5.78125" height="16.5" style="width: 9px; height: 12px;"><div xmlns="http://www.w3.org/1999/xhtml" style="display: table-cell; white-space: nowrap; line-height: 1.5;"><span class="edgeLabel"><p>1</p></span></div></foreignObject></g></g><g class="edgeTerminals" transform="translate(112.32421937500001, 749.5000005357143)"><g class="inner" transform="translate(-2.890625, -8.25)"><foreignObject width="5.78125" height="16.5" style="width: 9px; height: 12px;"><div xmlns="http://www.w3.org/1999/xhtml" style="display: table-cell; white-space: nowrap; line-height: 1.5;"><span class="edgeLabel"><p>1</p></span></div></foreignObject></g></g><g class="edgeTerminals" transform="translate(397.667969375, 773.5000005357143)"><g class="inner" transform="translate(-2.0234375, -8.25)"><foreignObject width="4.046875" height="16.5" style="width: 9px; height: 12px;"><div xmlns="http://www.w3.org/1999/xhtml" style="display: table-cell; white-space: nowrap; line-height: 1.5;"><span class="edgeLabel"><p>*</p></span></div></foreignObject></g></g><g class="edgeTerminals" transform="translate(457.54984422678615, 502.1411561832813)"><g class="inner" transform="translate(-2.0234375, -8.25)"><foreignObject width="4.046875" height="16.5" style="width: 9px; height: 12px;"><div xmlns="http://www.w3.org/1999/xhtml" style="display: table-cell; white-space: nowrap; line-height: 1.5;"><span class="edgeLabel"><p>*</p></span></div></foreignObject></g></g><g class="edgeTerminals" transform="translate(392.0820962992543, 490.68017483845165)"><g class="inner" transform="translate(-2.0234375, -8.25)"/><foreignObject width="4.046875" height="16.5" style="width: 9px; height: 12px;"><div xmlns="http://www.w3.org/1999/xhtml" style="display: table-cell; white-space: nowrap; line-height: 1.5;"><span class="edgeLabel"><p>*</p></span></div></foreignObject></g><g class="edgeTerminals" transform="translate(162.30681548992808, 802.2410721043647)"><g class="inner" transform="translate(-2.0234375, -8.25)"/><foreignObject width="4.046875" height="16.5" style="width: 9px; height: 12px;"><div xmlns="http://www.w3.org/1999/xhtml" style="display: table-cell; white-space: nowrap; line-height: 1.5;"><span class="edgeLabel"><p>*</p></span></div></foreignObject></g><g class="edgeTerminals" transform="translate(387.0895779779323, 825.1206883438772)"><g class="inner" transform="translate(-2.890625, -8.25)"/><foreignObject width="5.78125" height="16.5" style="width: 9px; height: 12px;"><div xmlns="http://www.w3.org/1999/xhtml" style="display: table-cell; white-space: nowrap; line-height: 1.5;"><span class="edgeLabel"><p>1</p></span></div></foreignObject></g><g class="edgeTerminals" transform="translate(422.55326922245416, 457.7146080440524)"><g class="inner" transform="translate(-2.890625, -8.25)"/><foreignObject width="5.78125" height="16.5" style="width: 9px; height: 12px;"><div xmlns="http://www.w3.org/1999/xhtml" style="display: table-cell; white-space: nowrap; line-height: 1.5;"><span class="edgeLabel"><p>1</p></span></div></foreignObject></g></g><g class="nodes"><g class="node default" id="my-svg-classId-Usuario-0" data-look="classic" transform="translate(412.66796875, 346)"><g class="basic label-container outer-path"><path d="M-114.9609375 -96 L114.9609375 -96 L114.9609375 96 L-114.9609375 96" stroke="none" stroke-width="0" fill="#ECECFF" style=""/><path d="M-114.9609375 -96 C-58.351142768330654 -96, -1.7413480366613072 -96, 114.9609375 -96 M-114.9609375 -96 C-57.19486788414035 -96, 0.5712017317192988 -96, 114.9609375 -96 M114.9609375 -96 C114.9609375 -25.35192313827794, 114.9609375 45.29615372344412, 114.9609375 96 M114.9609375 -96 C114.9609375 -19.600338934913125, 114.9609375 56.79932213017375, 114.9609375 96 M114.9609375 96 C43.56885153240124 96, -27.82323443519752 96, -114.9609375 96 M114.9609375 96 C23.785445055226617 96, -67.39004738954677 96, -114.9609375 96 M-114.9609375 96 C-114.9609375 43.77383538443555, -114.9609375 -8.4523292311289, -114.9609375 -96 M-114.9609375 96 C-114.9609375 40.294919108811314, -114.9609375 -15.410161782377372, -114.9609375 -96" stroke="#9370DB" stroke-width="1.3" fill="none" stroke-dasharray="0 0" style=""/></g><g class="annotation-group text" transform="translate(0, -72)"/><g class="label-group text" transform="translate(-28.1875, -72)"><g class="label" style="font-weight: bolder" transform="translate(0,-12)"><foreignObject width="56.375" height="24"><div xmlns="http://www.w3.org/1999/xhtml" style="display: table-cell; white-space: nowrap; line-height: 1.5; max-width: 102px; text-align: center;"><span class="nodeLabel markdown-node-label" style=""><p>Usuario</p></span></div></foreignObject></g></g><g class="members-group text" transform="translate(-102.9609375, -24)"><g class="label" style="" transform="translate(0,-12)"><foreignObject width="46.34375" height="24"><div xmlns="http://www.w3.org/1999/xhtml" style="display: table-cell; white-space: nowrap; line-height: 1.5; max-width: 99px; text-align: center;"><span class="nodeLabel markdown-node-label" style=""><p>+int id</p></span></div></foreignObject></g><g class="label" style="" transform="translate(0,12)"><foreignObject width="94.140625" height="24"><div xmlns="http://www.w3.org/1999/xhtml" style="display: table-cell; white-space: nowrap; line-height: 1.5; max-width: 143px; text-align: center;"><span class="nodeLabel markdown-node-label" style=""><p>+String nome</p></span></div></foreignObject></g><g class="label" style="" transform="translate(0,36)"><foreignObject width="94.5" height="24"><div xmlns="http://www.w3.org/1999/xhtml" style="display: table-cell; white-space: nowrap; line-height: 1.5; max-width: 144px; text-align: center;"><span class="nodeLabel markdown-node-label" style=""><p>+String email</p></span></div></foreignObject></g></g><g class="methods-group text" transform="translate(-102.9609375, 72)"><g class="label" style="" transform="translate(0,-12)"><foreignObject width="177.734375" height="24"><div xmlns="http://www.w3.org/1999/xhtml" style="display: table-cell; white-space: nowrap; line-height: 1.5; max-width: 218px; text-align: center;"><span class="nodeLabel markdown-node-label" style=""><p>+consultarEmprestimos()</p></span></div></foreignObject></g></g><g class="divider" style=""><path d="M-114.9609375 -48 C-43.44077719455504 -47.999688937121334, 28.07938311088992 -47.999377874242676, 114.9609375 -47.999 M-114.9609375 -48 C-42.5521505574918 -47.999685072214454, 29.8566363850164 -47.99937014442891, 114.9609375 -47.999" stroke="#9370DB" stroke-width="1.3" fill="none" stroke-dasharray="0 0" style=""/></g><g class="divider" style=""><path d="M-114.9609375 48 C-53.45275101304624 48.000267517766574, 8.055435473907522 48.00053503553315, 114.9609375 48.001 M-114.9609375 48 C-28.747495020097176 48.00037496842125, 57.46594745980565 48.0007499368425, 114.9609375 48.001" stroke="#9370DB" stroke-width="1.3" fill="none" stroke-dasharray="0 0" style=""/></g></g><g class="node default" id="my-svg-classId-Bibliotecario-1" data-look="classic" transform="translate(412.66796875, 92)"><g class="basic label-container outer-path"><path d="M-118.921875 -84 L118.921875 -84 L118.921875 84 L-118.921875 84" stroke="none" stroke-width="0" fill="#ECECFF" style=""/><path d="M-118.921875 -84 C-44.00078329234391 -84, 30.920308415312178 -84, 118.921875 -84 M-118.921875 -84 C-64.43703992411054 -84, -9.952204848221058 -84, 118.921875 -84 M118.921875 -84 C118.921875 -29.84769714326375, 118.921875 24.304605713472498, 118.921875 84 M118.921875 -84 C118.921875 -21.428759782211337, 118.921875 41.142480435577326, 118.921875 84 M118.921875 84 C36.231024728449256 84, -46.45982554310149 84, -118.921875 84 M118.921875 84 C67.44076918119089 84, 15.959663362381775 84, -118.921875 84 M-118.921875 84 C-118.921875 31.69677537087547, -118.921875 -20.606449258249057, -118.921875 -84 M-118.921875 84 C-118.921875 39.10979015034868, -118.921875 -5.780419699302641, -118.921875 -84" stroke="#9370DB" stroke-width="1.3" fill="none" stroke-dasharray="0 0" style=""/></g><g class="annotation-group text" transform="translate(0, -60)"/><g class="label-group text" transform="translate(-47.53125, -60)"><g class="label" style="font-weight: bolder" transform="translate(0,-12)"><foreignObject width="95.0625" height="24"><div xmlns="http://www.w3.org/1999/xhtml" style="display: table-cell; white-space: nowrap; line-height: 1.5; max-width: 135px; text-align: center;"><span class="nodeLabel markdown-node-label" style=""><p>Bibliotecario</p></span></div></foreignObject></g></g><g class="members-group text" transform="translate(-106.921875, -12)"><g class="label" style="" transform="translate(0,-12)"><foreignObject width="123.40625" height="24"><div xmlns="http://www.w3.org/1999/xhtml" style="display: table-cell; white-space: nowrap; line-height: 1.5; max-width: 169px; text-align: center;"><span class="nodeLabel markdown-node-label" style=""><p>+String matricula</p></span></div></foreignObject></g></g><g class="methods-group text" transform="translate(-106.921875, 36)"><g class="label" style="" transform="translate(0,-12)"><foreignObject width="166.3125" height="24"><div xmlns="http://www.w3.org/1999/xhtml" style="display: table-cell; white-space: nowrap; line-height: 1.5; max-width: 207px; text-align: center;"><span class="nodeLabel markdown-node-label" style=""><p>+registrarEmprestimo()</p></span></div></foreignObject></g><g class="label" style="" transform="translate(0,12)"><foreignObject width="154.6875" height="24"><div xmlns="http://www.w3.org/1999/xhtml" style="display: table-cell; white-space: nowrap; line-height: 1.5; max-width: 198px; text-align: center;"><span class="nodeLabel markdown-node-label" style=""><p>+registrarDevolucao()</p></span></div></foreignObject></g></g><g class="divider" style=""><path d="M-118.921875 -36 C-34.846806858005735 -35.99964651134141, 49.22826128398853 -35.99929302268282, 118.921875 -35.999 M-118.921875 -36 C-48.89339196622814 -35.99970556937892, 21.135091067543726 -35.99941113875783, 118.921875 -35.999" stroke="#9370DB" stroke-width="1.3" fill="none" stroke-dasharray="0 0" style=""/></g><g class="divider" style=""><path d="M-118.921875 12 C-31.542702707833016 12.000367380569353, 55.83646958433397 12.000734761138707, 118.921875 12.001 M-118.921875 12 C-39.63711420612019 12.000333348094259, 39.647646587759624 12.000666696188517, 118.921875 12.001" stroke="#9370DB" stroke-width="1.3" fill="none" stroke-dasharray="0 0" style=""/></g></g><g class="node default" id="my-svg-classId-Livro-2" data-look="classic" transform="translate(127.32421875, 636)"><g class="basic label-container outer-path"><path d="M-119.32421875 -96 L119.32421875 -96 L119.32421875 96 L-119.32421875 96" stroke="none" stroke-width="0" fill="#ECECFF" style=""/><path d="M-119.32421875 -96 C-24.009650572421634 -96, 71.30491760515673 -96, 119.32421875 -96 M-119.32421875 -96 C-49.909391646990684 -96, 19.50543545601863 -96, 119.32421875 -96 M119.32421875 -96 C119.32421875 -49.49784218161546, 119.32421875 -2.9956843632309216, 119.32421875 96 M119.32421875 -96 C119.32421875 -55.45903998537064, 119.32421875 -14.918079970741275, 119.32421875 96 M119.32421875 96 C38.55736223949394 96, -42.20949427101212 96, -119.32421875 96 M119.32421875 96 C46.657103139954415 96, -26.01001247009117 96, -119.32421875 96 M-119.32421875 96 C-119.32421875 56.51593744557741, -119.32421875 17.031874891154814, -119.32421875 -96 M-119.32421875 96 C-119.32421875 21.933569548271592, -119.32421875 -52.132860903456816, -119.32421875 -96" stroke="#9370DB" stroke-width="1.3" fill="none" stroke-dasharray="0 0" style=""/></g><g class="annotation-group text" transform="translate(0, -72)"/><g class="label-group text" transform="translate(-18.9765625, -72)"><g class="label" style="font-weight: bolder" transform="translate(0,-12)"><foreignObject width="37.953125" height="24"><div xmlns="http://www.w3.org/1999/xhtml" style="display: table-cell; white-space: nowrap; line-height: 1.5; max-width: 87px; text-align: center;"><span class="nodeLabel markdown-node-label" style=""><p>Livro</p></span></div></foreignObject></g></g><g class="members-group text" transform="translate(-107.32421875, -24)"><g class="label" style="" transform="translate(0,-12)"><foreignObject width="83.5" height="24"><div xmlns="http://www.w3.org/1999/xhtml" style="display: table-cell; white-space: nowrap; line-height: 1.5; max-width: 135px; text-align: center;"><span class="nodeLabel markdown-node-label" style=""><p>+String isbn</p></span></div></foreignObject></g><g class="label" style="" transform="translate(0,12)"><foreignObject width="94.109375" height="24"><div xmlns="http://www.w3.org/1999/xhtml" style="display: table-cell; white-space: nowrap; line-height: 1.5; max-width: 141px; text-align: center;"><span class="nodeLabel markdown-node-label" style=""><p>+String titulo</p></span></div></foreignObject></g><g class="label" style="" transform="translate(0,36)"><foreignObject width="93.109375" height="24"><div xmlns="http://www.w3.org/1999/xhtml" style="display: table-cell; white-space: nowrap; line-height: 1.5; max-width: 141px; text-align: center;"><span class="nodeLabel markdown-node-label" style=""><p>+String autor</p></span></div></foreignObject></g></g><g class="methods-group text" transform="translate(-107.32421875, 72)"><g class="label" style="" transform="translate(0,-12)"><foreignObject width="195.671875" height="24"><div xmlns="http://www.w3.org/1999/xhtml" style="display: table-cell; white-space: nowrap; line-height: 1.5; max-width: 236px; text-align: center;"><span class="nodeLabel markdown-node-label" style=""><p>+consultarDisponibilidade()</p></span></div></foreignObject></g></g><g class="divider" style=""><path d="M-119.32421875 -48 C-57.58641509345448 -47.9997413022926, 4.1513885630910465 -47.9994826045852, 119.32421875 -47.999 M-119.32421875 -48 C-27.065374347940605 -47.99961341106873, 65.19347005411879 -47.999226822137466, 119.32421875 -47.999" stroke="#9370DB" stroke-width="1.3" fill="none" stroke-dasharray="0 0" style=""/></g><g class="divider" style=""><path d="M-119.32421875 48 C-63.768246109746634 48.00023279420231, -8.212273469493269 48.000465588404616, 119.32421875 48.001 M-119.32421875 48 C-35.94171653139328 48.000349394712536, 47.440785687213435 48.00069878942508, 119.32421875 48.001" stroke="#9370DB" stroke-width="1.3" fill="none" stroke-dasharray="0 0" style=""/></g></g><g class="node default" id="my-svg-classId-Exemplar-3" data-look="classic" transform="translate(269.99609375, 914)"><g class="basic label-container outer-path"><path d="M-100.5390625 -84 L100.5390625 -84 L100.5390625 84 L-100.5390625 84" stroke="none" stroke-width="0" fill="#ECECFF" style=""/><path d="M-100.5390625 -84 C-52.37831398272479 -84, -4.2175654654495816 -84, 100.5390625 -84 M-100.5390625 -84 C-59.18645346060637 -84, -17.833844421212746 -84, 100.5390625 -84 M100.5390625 -84 C100.5390625 -22.857712889127868, 100.5390625 38.284574221744265, 100.5390625 84 M100.5390625 -84 C100.5390625 -18.695209461119774, 100.5390625 46.60958107776045, 100.5390625 84 M100.5390625 84 C54.48104548413569 84, 8.423028468271383 84, -100.5390625 84 M100.5390625 84 C27.369824016766685 84, -45.79941446646663 84, -100.5390625 84 M-100.5390625 84 C-100.5390625 24.410085468029266, -100.5390625 -35.17982906394147, -100.5390625 -84 M-100.5390625 84 C-100.5390625 42.781348777799685, -100.5390625 1.562697555599371, -100.5390625 -84" stroke="#9370DB" stroke-width="1.3" fill="none" stroke-dasharray="0 0" style=""/></g><g class="annotation-group text" transform="translate(0, -60)"/><g class="label-group text" transform="translate(-35.140625, -60)"><g class="label" style="font-weight: bolder" transform="translate(0,-12)"><foreignObject width="70.28125" height="24"><div xmlns="http://www.w3.org/1999/xhtml" style="display: table-cell; white-space: nowrap; line-height: 1.5; max-width: 114px; text-align: center;"><span class="nodeLabel markdown-node-label" style=""><p>Exemplar</p></span></div></foreignObject></g></g><g class="members-group text" transform="translate(-88.5390625, -12)"><g class="label" style="" transform="translate(0,-12)"><foreignObject width="78.578125" height="24"><div xmlns="http://www.w3.org/1999/xhtml" style="display: table-cell; white-space: nowrap; line-height: 1.5; max-width: 126px; text-align: center;"><span class="nodeLabel markdown-node-label" style=""><p>+int tombo</p></span></div></foreignObject></g><g class="label" style="" transform="translate(0,12)"><foreignObject width="102.265625" height="24"><div xmlns="http://www.w3.org/1999/xhtml" style="display: table-cell; white-space: nowrap; line-height: 1.5; max-width: 148px; text-align: center;"><span class="nodeLabel markdown-node-label" style=""><p>+String estado</p></span></div></foreignObject></g><g class="label" style="" transform="translate(0,36)"><foreignObject width="141.9375" height="24"><div xmlns="http://www.w3.org/1999/xhtml" style="display: table-cell; white-space: nowrap; line-height: 1.5; max-width: 186px; text-align: center;"><span class="nodeLabel markdown-node-label" style=""><p>+boolean disponivel</p></span></div></foreignObject></g></g><g class="methods-group text" transform="translate(-88.5390625, 84)"/><g class="divider" style=""><path d="M-100.5390625 -36 C-49.088334557941366 -35.99974412568278, 2.3623933841172686 -35.99948825136556, 100.5390625 -35.999 M-100.5390625 -36 C-54.212593213695165 -35.999769609601806, -7.886123927390329 -35.99953921920362, 100.5390625 -35.999" stroke="#9370DB" stroke-width="1.3" fill="none" stroke-dasharray="0 0" style=""/></g><g class="divider" style=""><path d="M-100.5390625 60 C-22.78814575420867 60.000386670189734, 54.96277099158266 60.000773340379475, 100.5390625 60.001 M-100.5390625 60 C-40.00473387265192 60.00030104880194, 20.529594754696163 60.000602097603874, 100.5390625 60.001" stroke="#9370DB" stroke-width="1.3" fill="none" stroke-dasharray="0 0" style=""/></g></g><g class="node default" id="my-svg-classId-Emprestimo-4" data-look="classic" transform="translate(412.66796875, 636)"><g class="basic label-container outer-path"><path d="M-116.01953125 -120 L116.01953125 -120 L116.01953125 120 L-116.01953125 120" stroke="none" stroke-width="0" fill="#ECECFF" style=""/><path d="M-116.01953125 -120 C-25.400631978071274 -120, 65.21826729385745 -120, 116.01953125 -120 M-116.01953125 -120 C-26.798821355520005 -120, 62.42188853895999 -120, 116.01953125 -120 M116.01953125 -120 C116.01953125 -49.48217696107295, 116.01953125 21.035646077854096, 116.01953125 120 M116.01953125 -120 C116.01953125 -34.36112208823698, 116.01953125 51.277755823526036, 116.01953125 120 M116.01953125 120 C50.93652380768259 120, -14.14648363463482 120, -116.01953125 120 M116.01953125 120 C51.49814825529903 120, -13.023234739401943 120, -116.01953125 120 M-116.01953125 120 C-116.01953125 25.618053658098432, -116.01953125 -68.76389268380314, -116.01953125 -120 M-116.01953125 120 C-116.01953125 39.282206225653866, -116.01953125 -41.43558754869227, -116.01953125 -120" stroke="#9370DB" stroke-width="1.3" fill="none" stroke-dasharray="0 0" style=""/></g><g class="annotation-group text" transform="translate(0, -96)"/><g class="label-group text" transform="translate(-44.5078125, -96)"><g class="label" style="font-weight: bolder" transform="translate(0,-12)"><foreignObject width="89.015625" height="24"><div xmlns="http://www.w3.org/1999/xhtml" style="display: table-cell; white-space: nowrap; line-height: 1.5; max-width: 129px; text-align: center;"><span class="nodeLabel markdown-node-label" style=""><p>Emprestimo</p></span></div></foreignObject></g></g><g class="members-group text" transform="translate(-104.01953125, -48)"><g class="label" style="" transform="translate(0,-12)"><foreignObject width="163.53125" height="24"><div xmlns="http://www.w3.org/1999/xhtml" style="display: table-cell; white-space: nowrap; line-height: 1.5; max-width: 204px; text-align: center;"><span class="nodeLabel markdown-node-label" style=""><p>+Date dataEmprestimo</p></span></div></foreignObject></g><g class="label" style="" transform="translate(0,12)"><foreignObject width="151.90625" height="24"><div xmlns="http://www.w3.org/1999/xhtml" style="display: table-cell; white-space: nowrap; line-height: 1.5; max-width: 195px; text-align: center;"><span class="nodeLabel markdown-node-label" style=""><p>+Date dataDevolucao</p></span></div></foreignObject></g><g class="label" style="" transform="translate(0,36)"><foreignObject width="97.59375" height="24"><div xmlns="http://www.w3.org/1999/xhtml" style="display: table-cell; white-space: nowrap; line-height: 1.5; max-width: 144px; text-align: center;"><span class="nodeLabel markdown-node-label" style=""><p>+String status</p></span></div></foreignObject></g><g class="label" style="" transform="translate(0,60)"><foreignObject width="88.671875" height="24"><div xmlns="http://www.w3.org/1999/xhtml" style="display: table-cell; white-space: nowrap; line-height: 1.5; max-width: 135px; text-align: center;"><span class="nodeLabel markdown-node-label" style=""><p>+float multa</p></span></div></foreignObject></g></g><g class="methods-group text" transform="translate(-104.01953125, 72)"><g class="label" style="" transform="translate(0,-12)"><foreignObject width="116.765625" height="24"><div xmlns="http://www.w3.org/1999/xhtml" style="display: table-cell; white-space: nowrap; line-height: 1.5; max-width: 164px; text-align: center;"><span class="nodeLabel markdown-node-label" style=""><p>+calcularMulta()</p></span></div></foreignObject></g><g class="label" style="" transform="translate(0,12)"><foreignObject width="81.703125" height="24"><div xmlns="http://www.w3.org/1999/xhtml" style="display: table-cell; white-space: nowrap; line-height: 1.5; max-width: 131px; text-align: center;"><span class="nodeLabel markdown-node-label" style=""><p>+devolver()</p></span></div></foreignObject></g></g><g class="divider" style=""><path d="M-116.01953125 -72 C-56.11740642030197 -71.99974184465243, 3.7847184093960635 -71.99948368930485, 116.01953125 -71.999 M-116.01953125 -72 C-46.0983945899775 -71.99969866652663, 23.822742070044995 -71.99939733305327, 116.01953125 -71.999" stroke="#9370DB" stroke-width="1.3" fill="none" stroke-dasharray="0 0" style=""/></g><g class="divider" style=""><path d="M-116.01953125 48 C-45.9149055890889 48.00030212424109, 24.189720071822194 48.000604248482176, 116.01953125 48.001 M-116.01953125 48 C-43.05363015685428 48.00031445524864, 29.912270936291435 48.000628910497284, 116.01953125 48.001" stroke="#9370DB" stroke-width="1.3" fill="none" stroke-dasharray="0 0" style=""/></g></g></g></g></g><defs><filter id="my-svg-drop-shadow" height="130%" width="130%"><feDropShadow dx="4" dy="4" stdDeviation="0" flood-opacity="0.06" flood-color="#000000"/></filter></defs><defs><filter id="my-svg-drop-shadow-small" height="150%" width="150%"><feDropShadow dx="2" dy="2" stdDeviation="0" flood-opacity="0.06" flood-color="#000000"/></filter></defs></svg>